<svg xmlns="http://www.w3.org/2000/svg" version="1.1" xmlns:xlink="http://www.w3.org/1999/xlink" xmlns:svgjs="http://svgjs.com/svgjs" width="512" height="512" x="0" y="0" viewBox="0 0 512 512" style="enable-background:new 0 0 512 512" xml:space="preserve" class=""><g><g xmlns="http://www.w3.org/2000/svg"><g><path d="m480.234 448.302h-88.43c38.56-25.828 56.018-73.074 56.018-119.361 0-76.46-42.552-138.009-116.998-138.009h-47.767c-15.798 0-28.765 12.718-28.769 28.915v.08 214.705c0 4.983.822 9.58 2.384 13.67h-56.822c19.122-15.489 30.81-38.998 30.81-64.741 0-19.58-6.963-38.628-19.605-53.634-.489-.581-.489-1.392 0-1.973 9.258-10.988 15.543-24.21 18.177-38.235.765-4.07-1.916-7.99-5.987-8.755-4.069-.766-7.991 1.917-8.755 5.987-2.157 11.487-7.312 22.324-14.907 31.339-5.199 6.171-5.199 15.13 0 21.301 10.368 12.306 16.077 27.921 16.077 43.97 0 29.42-18.61 55.291-46.418 64.741h-43.825c-27.878-9.485-46.536-35.355-46.536-64.741 0-9.343 9.37-16.775 19.779-12.537 4.718 1.923 7.764 6.831 7.759 12.504-.021 25.135 22.527 44.226 47.14 40.396 19.551-3.041 34.082-19.604 34.55-39.381.542-22.934-17.896-41.834-40.839-41.834-8.03 0-14.743-6.98-13.653-15.604.848-6.697 6.983-11.83 14.272-11.939 22.95-.343 41.868-19.906 40.121-43.877-1.371-18.825-15.894-34.533-34.531-37.352-21.74-3.276-42.074 10.968-46.293 32.449-1.465 7.461-8.689 12.333-16.166 10.857-7.465-1.467-12.324-8.696-10.856-16.165 6.276-31.954 34.499-55.147 67.106-55.147 30.206 0 57.211 20.261 65.671 49.271 1.16 3.977 5.324 6.256 9.3 5.101 3.977-1.16 6.26-5.323 5.101-9.3-10.314-35.369-43.241-60.071-80.071-60.071-39.758 0-74.17 28.285-81.825 67.257-3.063 15.596 7.078 30.711 22.682 33.773 15.596 3.076 30.713-7.079 33.778-22.685 2.668-13.584 15.553-22.59 29.333-20.508 11.772 1.779 20.946 11.709 21.813 23.609 1.087 14.926-10.582 27.567-25.386 27.789-14.712.221-27.149 10.992-28.929 25.055-2.205 17.425 11.338 32.486 28.534 32.486 14.475 0 26.188 11.934 25.843 26.479-.291 12.311-9.689 23.021-21.86 24.914-15.503 2.416-29.847-9.62-29.834-25.562.01-11.805-6.702-22.17-17.099-26.406-20.291-8.273-40.439 6.456-40.439 26.428 0 25.729 11.722 49.241 30.9 64.741h-63.016c-17.516 0-31.766 14.25-31.766 31.765 0 17.517 14.25 31.767 31.766 31.767h448.468c17.516 0 31.766-14.25 31.766-31.767 0-17.515-14.25-31.765-31.766-31.765zm-210.947-228.295c0-.034 0-.068 0-.103-.017-8.062 6.36-13.973 13.769-13.973h47.767c66.123 0 101.998 55.216 101.998 123.009 0 53.525-25.496 105.753-76.991 119.361h-81.669c-3.157-3.05-4.875-7.813-4.875-13.67v-214.624zm210.947 276.827h-448.468c-9.245 0-16.766-7.521-16.766-16.767 0-9.244 7.521-16.766 16.766-16.766h448.468c9.245 0 16.766 7.521 16.766 16.766s-7.521 16.767-16.766 16.767z" fill="#ffffff" data-original="#000000" class=""></path><path d="m28.047 105.78h6.3v9.663c0 16.86 13.716 30.577 30.576 30.577s30.577-13.716 30.577-30.577v-9.663h109.176v.287c0 8.145 6.626 14.771 14.771 14.771h.069l10.628 26.453c2.04 5.074 6.892 8.354 12.361 8.354h5.995v13.688c0 4.143 3.358 7.5 7.5 7.5s7.5-3.357 7.5-7.5v-13.688h5.996c5.469 0 10.321-3.279 12.361-8.354l10.628-26.452h.069c8.145 0 14.771-6.626 14.771-14.771v-.287h176.629c15.465 0 28.047-12.582 28.047-28.048 0-15.465-12.582-28.047-28.047-28.047h-176.63v-.287c0-8.145-6.626-14.771-14.771-14.771h-29.053v-2.821c0-17.446-14.194-31.641-31.641-31.641h-119.718c-17.447 0-31.641 14.194-31.641 31.641v58.973h-52.453c-7.194 0-13.047-5.853-13.047-13.048s5.853-13.047 13.047-13.047h24.891c4.142 0 7.5-3.357 7.5-7.5s-3.358-7.5-7.5-7.5h-24.891c-15.465.001-28.047 12.583-28.047 28.047 0 15.466 12.582 28.048 28.047 28.048zm279.277-41.094h176.629c7.194 0 13.047 5.853 13.047 13.047s-5.853 13.048-13.047 13.048h-176.629zm-38.963 75.959h-24.722l-7.958-19.807h40.637zm23.963-91.017v56.21c-24.152 0-48.325 0-72.648 0 0-10.056 0-38.004 0-48.643 0-.003 0-.006 0-.01s0-.006 0-.01v-7.548h72.648zm-196.824-17.821c0-9.176 7.465-16.641 16.641-16.641h119.719c9.176 0 16.641 7.465 16.641 16.641v2.821h-29.053c-8.145 0-14.771 6.626-14.771 14.771v.287h-81.613c-4.142 0-7.5 3.357-7.5 7.5s3.358 7.5 7.5 7.5h81.613v26.094h-109.177zm-46.153 73.973h31.153v9.663c0 8.589-6.988 15.577-15.577 15.577s-15.576-6.988-15.576-15.577z" fill="#ffffff" data-original="#000000" class=""></path><path d="m304.467 318.831h.008c4.142-.005 7.496-3.366 7.492-7.508-.016-14.404-.04-33.578-.09-62.854h18.947c42.108 0 59.46 38.078 59.46 80.472 0 39.687-18.645 79.304-58.151 79.994-5.867.103-13.284.188-19.961.255-.104-32.448-.144-48.329-.166-62.806-.006-4.138-3.363-7.488-7.5-7.488-.004 0-.008 0-.012 0-4.142.006-7.495 3.369-7.489 7.512.023 15.562.067 32.749.19 70.376.013 4.131 3.369 7.476 7.5 7.476h.064c8.038-.069 19.356-.183 27.634-.326 48.34-.845 72.89-46.813 72.89-94.992 0-51.015-23.428-95.472-74.46-95.472h-26.459c-4.145 0-7.507 3.367-7.5 7.513.059 33.562.085 54.76.103 70.357.004 4.139 3.361 7.491 7.5 7.491z" fill="#ffffff" data-original="#000000" class=""></path></g></g></g></svg>