<svg xmlns="http://www.w3.org/2000/svg" version="1.1" xmlns:xlink="http://www.w3.org/1999/xlink" xmlns:svgjs="http://svgjs.com/svgjs" width="512" height="512" x="0" y="0" viewBox="0 0 512 512" style="enable-background:new 0 0 512 512" xml:space="preserve" class=""><g><g xmlns="http://www.w3.org/2000/svg"><path d="m483.15 29.454h-26.009c-3.81-5.528-8.594-10.393-14.153-14.281-3.395-2.374-8.07-1.545-10.444 1.849-2.374 3.395-1.546 8.07 1.849 10.444 7.634 5.338 13.3 13.16 15.955 22.031.418 1.391-.153 2.451-.531 2.959-.39.524-1.271 1.403-2.786 1.403h-72.49c-1.516 0-2.397-.88-2.788-1.404-.379-.509-.953-1.572-.537-2.965 4.756-15.888 18.47-27.341 34.937-29.177 4.116-.459 7.082-4.168 6.623-8.285-.459-4.116-4.161-7.08-8.285-6.623-16.538 1.844-31.031 10.804-40.117 24.048h-62.033c-10.345-14.894-27.62-24.392-46.341-24.392s-35.996 9.498-46.339 24.393h-62.104c-10.342-14.895-27.616-24.393-46.338-24.393s-35.997 9.498-46.339 24.393h-26.03c-15.908 0-28.85 12.942-28.85 28.85v301.33c0 15.902 12.942 28.84 28.85 28.84h14.3v51.806c0 4.142 3.357 7.5 7.5 7.5s7.5-3.358 7.5-7.5v-51.8h26.38v103.46h-26.38v-16.8c0-4.142-3.357-7.5-7.5-7.5s-7.5 3.358-7.5 7.5v24.3c0 4.142 3.357 7.5 7.5 7.5h41.38c4.143 0 7.5-3.358 7.5-7.5v-110.966h312.94v110.965c0 4.142 3.357 7.5 7.5 7.5h41.376c4.143 0 7.5-3.358 7.5-7.5v-110.965h14.304c15.907 0 28.85-12.938 28.85-28.84v-301.33c0-15.908-12.942-28.85-28.85-28.85zm-29.303 462.484h-26.376v-103.46h26.376zm-197.847-471.877c18.107 0 34.378 12.101 39.567 29.427.417 1.395-.155 2.456-.534 2.964-.39.524-1.271 1.403-2.787 1.403h-72.492c-1.517 0-2.397-.879-2.787-1.403-.379-.508-.951-1.57-.534-2.964 5.189-17.326 21.46-29.427 39.567-29.427zm-154.781 0c18.107 0 34.378 12.101 39.566 29.427.417 1.395-.155 2.457-.533 2.965-.391.524-1.271 1.403-2.787 1.403h-72.493c-1.516 0-2.396-.879-2.786-1.403-.379-.508-.951-1.569-.534-2.964 5.188-17.327 21.458-29.428 39.567-29.428zm395.781 339.573c0 7.631-6.213 13.84-13.85 13.84h-454.3c-7.637 0-13.85-6.208-13.85-13.84v-301.33c0-7.637 6.213-13.85 13.85-13.85h18.668c-.077.245-.162.485-.236.731-1.679 5.605-.632 11.519 2.871 16.225 3.522 4.732 8.924 7.446 14.818 7.446h72.493c5.895 0 11.296-2.714 14.818-7.446 3.503-4.706 4.55-10.619 2.871-16.225-.074-.246-.159-.487-.236-.731h47.381c-.077.245-.162.485-.236.731-1.679 5.605-.632 11.519 2.871 16.224 3.522 4.732 8.924 7.446 14.819 7.446h72.492c5.896 0 11.297-2.714 14.819-7.446 3.503-4.706 4.55-10.619 2.871-16.225-.074-.246-.159-.487-.236-.731h47.38c-.077.246-.161.489-.236.737-1.676 5.605-.627 11.519 2.877 16.224 3.524 4.731 8.925 7.445 14.818 7.445h72.49c5.897 0 11.3-2.716 14.821-7.452 3.502-4.708 4.545-10.622 2.864-16.219-.074-.247-.16-.49-.237-.735h18.672c7.637 0 13.85 6.213 13.85 13.85v301.331z" fill="#fff" data-original="#000000" class=""></path><path d="m354.917 275.079c4.921-8.522 6.228-18.45 3.681-27.955-2.547-9.504-8.643-17.449-17.164-22.369l-11.755-6.787 11.755-6.787c8.521-4.92 14.617-12.864 17.164-22.369s1.24-19.433-3.681-27.955c-10.155-17.59-32.73-23.641-50.323-13.484l-11.754 6.786v-13.572c0-20.313-16.526-36.839-36.84-36.839s-36.84 16.526-36.84 36.839v13.572l-11.754-6.786c-17.591-10.157-40.167-4.106-50.323 13.484-4.921 8.522-6.228 18.45-3.681 27.955 2.547 9.504 8.643 17.449 17.164 22.369l11.755 6.787-11.755 6.787c-8.521 4.92-14.617 12.864-17.164 22.369s-1.24 19.433 3.681 27.955c10.156 17.591 32.732 23.642 50.323 13.484l11.754-6.786v13.572c0 20.313 16.526 36.84 36.84 36.84s36.84-16.526 36.84-36.84v-13.572l11.754 6.786c17.595 10.158 40.169 4.106 50.323-13.484zm-42.823-114.715c10.427-6.021 23.812-2.436 29.833 7.995 2.917 5.051 3.691 10.937 2.182 16.572s-5.123 10.344-10.175 13.261l-21.149 12.21c-2.035-15.344-10.157-28.786-21.861-37.814zm-56.094-41.615c12.043 0 21.84 9.797 21.84 21.839v24.417c-6.735-2.788-14.109-4.335-21.84-4.335-7.546 0-14.964 1.499-21.84 4.333v-24.415c0-12.043 9.797-21.839 21.84-21.839zm-77.934 79.442c-5.052-2.917-8.665-7.626-10.175-13.261s-.735-11.521 2.182-16.572c6.021-10.428 19.402-14.015 29.833-7.994l21.143 12.208c-.71.547-1.409 1.109-2.094 1.69-3.157 2.681-3.544 7.414-.863 10.571 2.682 3.158 7.414 3.545 10.572.863 7.615-6.466 17.324-10.027 27.336-10.027 23.324 0 42.3 18.976 42.3 42.3s-18.976 42.3-42.3 42.3-42.3-18.976-42.3-42.3c0-2.165.166-4.346.493-6.484.628-4.095-2.184-7.922-6.277-8.549-4.088-.627-7.923 2.184-8.549 6.278-.06.393-.106.789-.158 1.184zm21.84 77.381c-10.428 6.021-23.812 2.435-29.833-7.995-2.917-5.051-3.691-10.937-2.182-16.572s5.123-10.344 10.175-13.261l21.149-12.21c2.034 15.344 10.156 28.786 21.86 37.815zm56.094 41.616c-12.043 0-21.84-9.797-21.84-21.84v-24.414c6.735 2.788 14.109 4.335 21.84 4.335s15.105-1.548 21.84-4.335v24.414c0 12.043-9.797 21.84-21.84 21.84zm56.094-41.616-21.169-12.222c11.704-9.029 19.826-22.471 21.86-37.815l21.149 12.21c5.052 2.917 8.665 7.626 10.175 13.261s.735 11.521-2.182 16.572c-6.022 10.428-19.403 14.015-29.833 7.994z" fill="#fff" data-original="#000000" class=""></path><path d="m374.572 267.898c-4.143 0-7.5 3.358-7.5 7.5v47.368c0 3.46-2.815 6.275-6.275 6.275h-47.367c-4.143 0-7.5 3.358-7.5 7.5s3.357 7.5 7.5 7.5h47.367c11.731 0 21.275-9.544 21.275-21.275v-47.368c0-4.142-3.357-7.5-7.5-7.5z" fill="#fff" data-original="#000000" class=""></path><path d="m137.428 168.039c4.143 0 7.5-3.358 7.5-7.5v-47.367c0-3.46 2.815-6.276 6.275-6.276h47.367c4.143 0 7.5-3.358 7.5-7.5s-3.357-7.5-7.5-7.5h-47.367c-11.731 0-21.275 9.544-21.275 21.276v47.367c0 4.142 3.357 7.5 7.5 7.5z" fill="#fff" data-original="#000000" class=""></path><path d="m198.57 329.041h-47.367c-3.46 0-6.275-2.815-6.275-6.275v-47.368c0-4.142-3.357-7.5-7.5-7.5s-7.5 3.358-7.5 7.5v47.368c0 11.731 9.544 21.275 21.275 21.275h47.367c4.143 0 7.5-3.358 7.5-7.5s-3.357-7.5-7.5-7.5z" fill="#fff" data-original="#000000" class=""></path><path d="m360.797 91.896h-47.367c-4.143 0-7.5 3.358-7.5 7.5s3.357 7.5 7.5 7.5h47.367c3.46 0 6.275 2.815 6.275 6.276v47.367c0 4.142 3.357 7.5 7.5 7.5s7.5-3.358 7.5-7.5v-47.367c0-11.732-9.544-21.276-21.275-21.276z" fill="#fff" data-original="#000000" class=""></path></g></g></svg>