<svg xmlns="http://www.w3.org/2000/svg" version="1.1" xmlns:xlink="http://www.w3.org/1999/xlink" xmlns:svgjs="http://svgjs.com/svgjs" width="512" height="512" x="0" y="0" viewBox="0 0 512 512" style="enable-background:new 0 0 512 512" xml:space="preserve" class=""><g><g xmlns="http://www.w3.org/2000/svg"><g><path d="m195.805 183.973h68.475c4.143 0 7.5-3.357 7.5-7.5s-3.357-7.5-7.5-7.5h-68.475c-4.142 0-7.5 3.357-7.5 7.5s3.358 7.5 7.5 7.5z" fill="#fff" data-original="#000000" class=""></path><path d="m195.805 215.927h134.667c4.143 0 7.5-3.357 7.5-7.5s-3.357-7.5-7.5-7.5h-134.667c-4.142 0-7.5 3.357-7.5 7.5s3.358 7.5 7.5 7.5z" fill="#fff" data-original="#000000" class=""></path><path d="m348.515 313.254h37.5c4.143 0 7.5-3.357 7.5-7.5s-3.357-7.5-7.5-7.5h-37.5c-4.143 0-7.5 3.357-7.5 7.5s3.357 7.5 7.5 7.5z" fill="#fff" data-original="#000000" class=""></path><path d="m348.515 345.218h114.144c4.143 0 7.5-3.357 7.5-7.5s-3.357-7.5-7.5-7.5h-114.144c-4.143 0-7.5 3.357-7.5 7.5s3.357 7.5 7.5 7.5z" fill="#fff" data-original="#000000" class=""></path><circle cx="441.658" cy="305.754" r="7.5" fill="#fff" data-original="#000000" class=""></circle><circle cx="462.658" cy="305.754" r="7.5" fill="#fff" data-original="#000000" class=""></circle><path d="m348.515 377.173h114.144c4.143 0 7.5-3.357 7.5-7.5s-3.357-7.5-7.5-7.5h-114.144c-4.143 0-7.5 3.357-7.5 7.5s3.357 7.5 7.5 7.5z" fill="#fff" data-original="#000000" class=""></path><path d="m348.515 409.127h114.144c4.143 0 7.5-3.357 7.5-7.5s-3.357-7.5-7.5-7.5h-114.144c-4.143 0-7.5 3.357-7.5 7.5s3.357 7.5 7.5 7.5z" fill="#fff" data-original="#000000" class=""></path><path d="m499.5 232.882h-48v-87.882c0-4.143-3.357-7.5-7.5-7.5s-7.5 3.357-7.5 7.5v87.882h-47.173v-113.036c0-6.893-5.607-12.5-12.5-12.5h-118.645l28.089-47.346h150.229v50c0 4.143 3.357 7.5 7.5 7.5s7.5-3.357 7.5-7.5v-52.5c0-6.893-5.607-12.5-12.5-12.5h-364.327c-6.893 0-12.5 5.607-12.5 12.5v49.846h-49.673c-6.893 0-12.5 5.607-12.5 12.5v209.117c0 6.893 5.607 12.5 12.5 12.5h110.173v113.037c0 6.893 5.607 12.5 12.5 12.5h297.827c4.143 0 7.5-3.357 7.5-7.5s-3.357-7.5-7.5-7.5h-118.827v-204.118h182.827v204.118h-29c-4.143 0-7.5 3.357-7.5 7.5s3.357 7.5 7.5 7.5h31.5c6.893 0 12.5-5.607 12.5-12.5v-209.118c0-6.893-5.607-12.5-12.5-12.5zm-368.738 0c.941-2.653 1.458-5.506 1.458-8.478 0-14.023-11.409-25.432-25.432-25.432s-25.432 11.408-25.432 25.432 11.409 25.433 25.432 25.433c6.006 0 11.529-2.097 15.885-5.592v17.325c-4.879 2.097-10.246 3.268-15.885 3.268-22.294 0-40.432-18.138-40.432-40.433 0-22.294 18.138-40.432 40.432-40.432s40.432 18.138 40.432 40.432c0 2.908-.314 5.743-.902 8.478h-15.556zm-13.542-8.478c0 5.753-4.68 10.433-10.432 10.433s-10.432-4.68-10.432-10.433c0-5.752 4.68-10.432 10.432-10.432s10.432 4.68 10.432 10.432zm181.953 227.596h-161.5v-204.118h161.5zm75.154-219.118h-212.764c.429-2.765.657-5.594.657-8.478 0-30.565-24.867-55.432-55.432-55.432s-55.432 24.866-55.432 55.432 24.867 55.433 55.432 55.433c5.522 0 10.849-.832 15.885-2.345v48.971h-107.673v-204.117h108c4.142 0 7.5-3.357 7.5-7.5s-3.358-7.5-7.5-7.5h-45.827v-47.346h191.657l-28.09 47.346h-82.74c-4.142 0-7.5 3.357-7.5 7.5s3.358 7.5 7.5 7.5h216.327z" fill="#fff" data-original="#000000" class=""></path><path d="m209.583 399.64c2.361 2.361 5.5 3.662 8.84 3.662s6.479-1.301 8.839-3.661l40.861-40.86c2.36-2.361 3.661-5.501 3.661-8.84 0-3.34-1.301-6.479-3.661-8.839l-40.862-40.861c-4.874-4.874-12.803-4.87-17.677 0l-40.86 40.861c-2.361 2.36-3.662 5.5-3.662 8.839s1.3 6.478 3.661 8.84zm16.34-79.525 29.826 29.825-29.826 29.825zm-15 0v59.65l-29.826-29.825z" fill="#fff" data-original="#000000" class=""></path></g></g></g></svg>