<svg xmlns="http://www.w3.org/2000/svg" version="1.1" xmlns:xlink="http://www.w3.org/1999/xlink" xmlns:svgjs="http://svgjs.com/svgjs" width="512" height="512" x="0" y="0" viewBox="0 0 512 512" style="enable-background:new 0 0 512 512" xml:space="preserve" class=""><g><g xmlns="http://www.w3.org/2000/svg"><path d="m507.351 132.934-49.748-40.165c-2.211-1.812-5.015-2.809-7.893-2.809h-21.442v-19.26c0-6.893-5.607-12.5-12.5-12.5h-52.532c-6.893 0-12.5 5.607-12.5 12.5v19.26h-26.186c-4.143 0-7.5 3.357-7.5 7.5s3.357 7.5 7.5 7.5h124.274l48.176 38.896v92.625h-73.418v-74.843c0-6.893-5.607-12.5-12.5-12.5h-310.164c-6.893 0-12.5 5.607-12.5 12.5v74.843h-73.418v-92.625l48.175-38.896h226.375c4.143 0 7.5-3.357 7.5-7.5s-3.357-7.5-7.5-7.5h-128.285v-19.26c0-6.893-5.607-12.5-12.5-12.5h-52.533c-6.893 0-12.5 5.607-12.5 12.5v19.26h-21.442c-2.878 0-5.682.997-7.851 2.774l-49.781 40.193c-2.96 2.383-4.658 5.93-4.658 9.734v96.32c0 6.893 5.607 12.5 12.5 12.5h7.43v49.869c0 4.143 3.357 7.5 7.5 7.5s7.5-3.357 7.5-7.5v-49.869h19.11v187.319h-19.11v-102.45c0-4.143-3.357-7.5-7.5-7.5s-7.5 3.357-7.5 7.5v104.95c0 6.893 5.607 12.5 12.5 12.5h24.11c6.893 0 12.5-5.607 12.5-12.5v-189.819h55.884v149.82c0 6.893 5.607 12.5 12.5 12.5h237.152c6.893 0 12.5-5.607 12.5-12.5v-149.82h55.884v189.819c0 6.893 5.607 12.5 12.5 12.5h24.11c6.893 0 12.5-5.607 12.5-12.5v-189.819h7.43c6.893 0 12.5-5.607 12.5-12.5v-96.32c0-3.804-1.698-7.351-4.649-9.727zm-141.616-59.734h47.532v16.76h-47.532zm-267.003 0h47.532v16.76h-47.532zm309.85 90.938v20.008h-305.164v-20.008zm-305.164 72.343v-37.335h21.506v37.335zm36.506 162.32v-199.655h232.152v199.655zm247.152-199.655h21.506v37.335h-21.506zm89.994 239.654h-19.11v-187.319h19.11z" fill="#ffffff" data-original="#000000" class=""></path><path d="m303.554 308.934c-4.297-7.091-11.814-11.324-20.106-11.323-8.115.001-15.481 4.069-19.812 10.892l-15.99-35.272c-2.596-5.727-8.115-9.285-14.403-9.285-6.287 0-11.807 3.559-14.402 9.285l-33.772 74.506c-3.803 8.39 2.338 17.895 11.537 17.895h118.784c9.873 0 15.941-10.823 10.837-19.224zm-103.329 41.697 32.277-71.207c.075-.167.217-.479.74-.479.524 0 .666.312.741.479l32.28 71.207zm82.508 0-11.598-25.583 5.051-8.344c2.234-3.692 5.825-4.093 7.263-4.093 1.442 0 5.036.399 7.273 4.093l20.527 33.928h-28.516z" fill="#ffffff" data-original="#000000" class=""></path><path d="m283.453 282.601c13.287 0 24.097-10.81 24.097-24.096 0-13.287-10.81-24.097-24.097-24.097-13.286 0-24.096 10.81-24.096 24.097s10.81 24.096 24.096 24.096zm0-33.192c5.016 0 9.097 4.081 9.097 9.097s-4.081 9.096-9.097 9.096-9.096-4.08-9.096-9.096 4.081-9.097 9.096-9.097z" fill="#ffffff" data-original="#000000" class=""></path></g></g></svg>