<svg xmlns="http://www.w3.org/2000/svg" version="1.1" xmlns:xlink="http://www.w3.org/1999/xlink" xmlns:svgjs="http://svgjs.com/svgjs" width="512" height="512" x="0" y="0" viewBox="0 0 511.997 511.997" style="enable-background:new 0 0 512 512" xml:space="preserve" class=""><g><g xmlns="http://www.w3.org/2000/svg"><path d="m465.668 0h-364.835c-21.343 0-38.709 17.365-38.709 38.708v76.201c0 4.142 3.357 7.5 7.5 7.5s7.5-3.358 7.5-7.5v-76.201c0-13.072 10.636-23.708 23.709-23.708h338.407c-7.336 12.253-3.309-3.881-4.368 427.063 0 13.146-10.694 23.84-23.84 23.84h-108.704v-16.063h77.981c4.143 0 7.5-3.358 7.5-7.5 0-12.958 10.542-23.5 23.5-23.5 4.143 0 7.5-3.358 7.5-7.5v-145.885c0-4.142-3.357-7.5-7.5-7.5s-7.5 3.358-7.5 7.5v139.119c-15.225 3.018-27.249 15.042-30.267 30.267h-71.215v-29.793c23.346-15.203 38.825-41.516 38.825-71.393 0-46.955-38.2-85.156-85.155-85.156s-85.155 38.201-85.155 85.156c0 29.877 15.479 56.19 38.825 71.393v29.793h-71.215c-3.018-15.225-15.041-27.249-30.267-30.267v-328.245c15.226-3.018 27.249-15.042 30.267-30.267h235.09c3.018 15.225 15.041 27.249 30.267 30.267v156.439c0 4.142 3.357 7.5 7.5 7.5s7.5-3.358 7.5-7.5v-163.206c0-4.142-3.357-7.5-7.5-7.5-12.958 0-23.5-10.542-23.5-23.5 0-4.142-3.357-7.5-7.5-7.5h-248.622c-4.143 0-7.5 3.358-7.5 7.5 0 12.958-10.542 23.5-23.5 23.5-4.143 0-7.5 3.358-7.5 7.5v341.778c0 4.142 3.357 7.5 7.5 7.5 12.958 0 23.5 10.542 23.5 23.5 0 4.142 3.357 7.5 7.5 7.5h77.981v16.062c-1.345 0-135.57.031-136.912.031 6.416-10.715 3.783-15.17 4.369-54.625 0-.007-.001-.013-.001-.019v-264.009c0-4.142-3.357-7.5-7.5-7.5s-7.5 3.358-7.5 7.5v256.529h-39.092c-4.143 0-7.5 3.358-7.5 7.5v38.828c0 16.974 13.805 30.785 30.777 30.796.007 0 .013.001.02.001 211.998-.067 47.054-.013 163.34-.031v23.594c0 2.883 1.652 5.511 4.251 6.76 2.598 1.249 5.684.898 7.934-.903l34.146-27.314 34.146 27.314c2.25 1.801 5.335 2.152 7.934.903s4.251-3.877 4.251-6.76v-23.594h108.703c21.416 0 38.84-17.423 38.84-38.84v-364.938h39.094c4.143 0 7.5-3.358 7.5-7.5v-38.828c-.003-16.982-13.818-30.797-30.8-30.797zm-435.136 450.137v-31.328h31.593v31.328c0 4.518-1.917 8.588-4.968 11.47-2.831 2.674-6.636 4.326-10.828 4.326-8.711.001-15.797-7.086-15.797-15.796zm155.311-116.483c0-38.684 31.472-70.156 70.155-70.156s70.155 31.472 70.155 70.156c0 38.744-31.554 70.155-70.155 70.155-38.682 0-70.155-31.489-70.155-70.155zm101.485 155.239-26.646-21.314c-2.738-2.191-6.631-2.191-9.369 0l-26.646 21.314v-76.081c9.705 3.855 20.269 5.998 31.33 5.998s21.625-2.143 31.33-5.998v76.081zm194.137-426.768h-31.594v-31.328c0-8.71 7.087-15.797 15.797-15.797s15.797 7.086 15.797 15.797z" fill="#ffffff" data-original="#000000" class=""></path><path d="m349.185 108.718h-186.373c-4.143 0-7.5 3.358-7.5 7.5s3.357 7.5 7.5 7.5h186.373c4.143 0 7.5-3.358 7.5-7.5s-3.358-7.5-7.5-7.5z" fill="#ffffff" data-original="#000000" class=""></path><path d="m349.185 139.78h-186.373c-4.143 0-7.5 3.358-7.5 7.5s3.357 7.5 7.5 7.5h186.373c4.143 0 7.5-3.358 7.5-7.5s-3.358-7.5-7.5-7.5z" fill="#ffffff" data-original="#000000" class=""></path><path d="m356.685 178.342c0-4.142-3.357-7.5-7.5-7.5h-186.373c-4.143 0-7.5 3.358-7.5 7.5s3.357 7.5 7.5 7.5h186.373c4.142 0 7.5-3.358 7.5-7.5z" fill="#ffffff" data-original="#000000" class=""></path><path d="m294.967 77.125c4.143 0 7.5-3.358 7.5-7.5s-3.357-7.5-7.5-7.5h-77.937c-4.143 0-7.5 3.358-7.5 7.5s3.357 7.5 7.5 7.5z" fill="#ffffff" data-original="#000000" class=""></path><path d="m255.998 387.747c29.827 0 54.094-24.266 54.094-54.093 0-29.828-24.267-54.094-54.094-54.094-9.388 0-18.638 2.445-26.752 7.07-3.599 2.051-4.854 6.631-2.802 10.229 2.051 3.599 6.631 4.854 10.229 2.802 5.855-3.337 12.537-5.101 19.324-5.101 21.557 0 39.094 17.538 39.094 39.094s-17.537 39.093-39.094 39.093-39.094-17.537-39.094-39.093c0-5.042.944-9.948 2.808-14.58 1.545-3.843-.317-8.211-4.161-9.756-3.837-1.543-8.21.316-9.757 4.161-2.581 6.419-3.89 13.208-3.89 20.176.002 29.826 24.268 54.092 54.095 54.092z" fill="#ffffff" data-original="#000000" class=""></path><path d="m217.03 201.598c-4.143 0-7.5 3.358-7.5 7.5s3.357 7.5 7.5 7.5h77.938c4.143 0 7.5-3.358 7.5-7.5s-3.357-7.5-7.5-7.5z" fill="#ffffff" data-original="#000000" class=""></path></g></g></svg>