<svg xmlns="http://www.w3.org/2000/svg" version="1.1" xmlns:xlink="http://www.w3.org/1999/xlink" xmlns:svgjs="http://svgjs.com/svgjs" width="512" height="512" x="0" y="0" viewBox="0 0 512 512" style="enable-background:new 0 0 512 512" xml:space="preserve" class=""><g><g xmlns="http://www.w3.org/2000/svg"><path d="m338.833 472.823c-2.207 0-4.413-.326-6.558-.979l-159.109-48.482-144.108 43.91c-6.89 2.099-14.161.845-19.949-3.441-5.789-4.289-9.109-10.878-9.109-18.083v-338.157c0-9.968 6.407-18.617 15.942-21.523l150.667-45.909c4.291-1.309 8.826-1.308 13.116-.001l161.295 49.149c3.157.962 5.314 3.874 5.314 7.174v338.839c0 4.143-3.358 7.5-7.5 7.5s-7.5-3.357-7.5-7.5v-143.676l-150.667-45.955v164.276l155.98 47.529c1.43.434 2.943.435 4.373-.001l150.666-45.909c3.178-.969 5.314-3.853 5.314-7.175v-338.157c0-2.401-1.107-4.599-3.037-6.027-1.929-1.429-4.353-1.848-6.649-1.147l-116.295 35.437c-3.964 1.207-8.153-1.026-9.36-4.988-1.208-3.963 1.026-8.153 4.988-9.361l116.295-35.437c6.89-2.099 14.161-.845 19.949 3.441 5.789 4.288 9.109 10.878 9.109 18.082v338.158c0 9.968-6.407 18.617-15.942 21.523l-150.667 45.909c-2.145.654-4.351.981-6.558.981zm-173.166-416.697-145.353 44.29c-3.178.969-5.314 3.853-5.314 7.175v338.157c0 2.401 1.107 4.599 3.037 6.027 1.929 1.43 4.353 1.848 6.649 1.147l140.981-42.958v-253.803c0-4.143 3.358-7.5 7.5-7.5s7.5 3.357 7.5 7.5v73.846l150.667 45.955v-173.926l-150.667-45.91v70.035c0 4.143-3.358 7.5-7.5 7.5s-7.5-3.357-7.5-7.5zm144.583 311.246c-1.208 3.962-5.4 6.194-9.362 4.986h.001l-94.152-28.718c-3.962-1.209-6.194-5.4-4.986-9.362 1.209-3.962 5.399-6.194 9.362-4.985l94.152 28.718c3.961 1.208 6.193 5.4 4.985 9.361zm0 45c-1.208 3.962-5.4 6.194-9.362 4.986h.001l-94.152-28.718c-3.962-1.209-6.194-5.4-4.986-9.362 1.209-3.962 5.399-6.194 9.362-4.985l94.152 28.718c3.961 1.208 6.193 5.4 4.985 9.361zm0-90c-1.208 3.962-5.4 6.194-9.362 4.986h.001l-94.152-28.718c-3.962-1.209-6.194-5.4-4.986-9.362 1.209-3.962 5.399-6.194 9.362-4.985l94.152 28.718c3.961 1.208 6.193 5.4 4.985 9.361zm62.153 35.638 94.152-28.718c3.962-1.209 8.153 1.023 9.362 4.985 1.208 3.962-1.024 8.153-4.986 9.362l-94.152 28.718h.001c-3.962 1.208-8.154-1.024-9.362-4.986s1.023-8.152 4.985-9.361zm0 45 94.152-28.718c3.962-1.209 8.153 1.023 9.362 4.985 1.208 3.962-1.024 8.153-4.986 9.362l-94.152 28.718h.001c-3.962 1.208-8.154-1.024-9.362-4.986s1.023-8.152 4.985-9.361zm0-90 94.152-28.718c3.962-1.209 8.153 1.023 9.362 4.985 1.208 3.962-1.024 8.153-4.986 9.362l-94.152 28.718h.001c-3.962 1.208-8.154-1.024-9.362-4.986s1.023-8.152 4.985-9.361zm0-45 94.152-28.718c3.962-1.209 8.153 1.023 9.362 4.985 1.208 3.962-1.024 8.153-4.986 9.362l-94.152 28.718h.001c-3.962 1.208-8.154-1.024-9.362-4.986s1.023-8.152 4.985-9.361zm-291.578 28.675c-17.146 14.87-21.845 14.727-25.993 12.978-7.117-3.001-7.264-11.813-5.045-27.021.671-4.601 1.497-9.093 2.156-12.439-24.871-14.128-22.382-22.541-21.531-25.42 1.357-4.592 5.614-8.877 22.614-16.046 5.358-2.26 10.572-4.195 13.881-5.381 1.182-3.436 3.137-8.934 5.411-14.581 7.111-17.661 11.328-22.06 15.827-23.433h.001c9.761-2.977 16.582 9.812 19.862 15.957 1.58 2.96 3.009 5.94 4.143 8.419 3.136-.755 7.12-1.656 11.187-2.422 11.851-2.233 23.68-3.692 26.779 4.901 1.155 3.202 3.272 9.074-21.668 37.849.697 3.043 1.655 7.538 2.415 12.285 2.258 14.095 1.517 21.559-2.557 25.761-4.314 4.45-11.917 4.866-25.42 1.394-4.033-1.037-7.866-2.239-10.672-3.175-2.776 2.636-6.956 6.529-11.39 10.374zm-34.077-48.255c3.444 3.068 10.423 7.688 17.142 11.198 3.007 1.571 4.585 4.967 3.847 8.279-1.864 8.368-3.296 17.18-3.897 23.364 5.918-4.587 14.308-12.097 21.233-18.91 2.079-2.044 5.154-2.699 7.885-1.679 9.256 3.454 19.508 6.02 24.156 6.164.294-4.947-1.411-16.407-4.127-26.948-.621-2.409-.007-4.972 1.64-6.837 6.369-7.215 13.353-15.952 17.498-22.011-5.917.813-14.361 2.565-22.331 4.739-3.663 1.001-7.497-.898-8.925-4.417-2.901-7.148-6.622-14.442-9.384-18.648-3.348 6.247-8.111 18.371-11.506 28.816-.733 2.255-2.49 4.031-4.737 4.789-11.499 3.879-23.201 8.907-28.494 12.101zm365.411-21.745c-17.146 14.87-21.845 14.727-25.993 12.978-7.117-3.001-7.264-11.813-5.045-27.021.671-4.601 1.497-9.093 2.156-12.439-24.871-14.128-22.382-22.541-21.531-25.42 1.357-4.592 5.614-8.877 22.614-16.046 5.358-2.26 10.572-4.195 13.881-5.381 1.182-3.436 3.137-8.934 5.411-14.581 7.111-17.661 11.328-22.06 15.827-23.433h.001c9.761-2.977 16.582 9.812 19.862 15.957 1.58 2.96 3.009 5.94 4.143 8.419 3.136-.755 7.12-1.656 11.187-2.422 11.851-2.233 23.68-3.692 26.779 4.901 1.155 3.202 3.272 9.074-21.668 37.849.697 3.043 1.655 7.538 2.415 12.285 2.258 14.095 1.517 21.559-2.557 25.761-4.314 4.45-11.917 4.866-25.42 1.394-4.033-1.037-7.866-2.239-10.672-3.175-2.776 2.636-6.956 6.529-11.39 10.374zm-34.078-48.255c3.444 3.068 10.423 7.688 17.142 11.198 3.007 1.571 4.585 4.967 3.847 8.279-1.864 8.368-3.296 17.18-3.897 23.364 5.918-4.587 14.308-12.097 21.233-18.91 2.079-2.044 5.154-2.699 7.885-1.679 9.256 3.454 19.508 6.02 24.156 6.164.294-4.947-1.411-16.407-4.127-26.948-.621-2.409-.007-4.972 1.64-6.837 6.369-7.215 13.353-15.952 17.498-22.011-5.917.813-14.361 2.565-22.331 4.739-3.663 1.001-7.497-.898-8.925-4.417-2.901-7.148-6.622-14.442-9.384-18.648-3.348 6.247-8.111 18.371-11.506 28.816-.733 2.255-2.49 4.031-4.737 4.789-11.499 3.879-23.2 8.907-28.494 12.101z" fill="#ff4328" data-original="#000000" class=""></path></g></g></svg>