<svg xmlns="http://www.w3.org/2000/svg" version="1.1" xmlns:xlink="http://www.w3.org/1999/xlink" xmlns:svgjs="http://svgjs.com/svgjs" width="512" height="512" x="0" y="0" viewBox="0 0 512 512" style="enable-background:new 0 0 512 512" xml:space="preserve" class=""><g><g xmlns="http://www.w3.org/2000/svg"><path d="m505.085 199.053c-1.522-3.853-5.881-5.738-9.732-4.217-3.852 1.523-5.74 5.88-4.217 9.732 3.892 9.841 5.864 20.228 5.864 30.872v42.05c0 67.547-54.953 122.5-122.5 122.5h-11.515c2.826-7.851 4.622-16.188 5.227-24.849h6.291c53.841 0 97.644-43.802 97.644-97.643v-42.054c0-32.726-26.625-59.35-59.351-59.35-17.625 0-33.471 7.73-44.351 19.969v-32.146c13.293-8.293 28.543-12.667 44.355-12.667 23.206 0 45.629 9.76 61.518 26.778 1.478 1.582 3.478 2.382 5.484 2.382 1.833 0 3.671-.668 5.116-2.018 3.028-2.827 3.19-7.573.364-10.6-18.716-20.045-45.135-31.542-72.482-31.542-15.563 0-30.666 3.605-44.355 10.485v-43.81c3.517-1.344 6.751-3.422 9.506-6.17 5.113-5.128 7.93-11.934 7.93-19.166 0-14.954-12.166-27.12-27.12-27.12h-276.411c-4.143 0-7.5 3.358-7.5 7.5s3.357 7.5 7.5 7.5h276.41c6.683 0 12.12 5.437 12.12 12.12 0 3.233-1.261 6.278-3.536 8.56-2.281 2.274-5.294 3.533-8.494 3.556h-331.817c-6.642-.046-12.033-5.461-12.033-12.114 0-3.239 1.259-6.282 3.544-8.567 2.291-2.291 5.337-3.553 8.576-3.553h20.23c4.143 0 7.5-3.358 7.5-7.5s-3.357-7.5-7.5-7.5h-20.23c-7.247 0-14.06 2.822-19.184 7.947-5.118 5.118-7.936 11.927-7.936 19.173 0 11.542 7.251 21.417 17.435 25.325v265.691c0 51.238 41.685 92.923 92.923 92.923h165.164c34.356 0 64.416-18.743 80.495-46.539h18.483c75.817 0 137.5-61.682 137.5-137.5v-42.05c0-12.541-2.326-24.784-6.915-36.388zm-92.29-7.959c24.455 0 44.351 19.895 44.351 44.35v42.054c0 45.57-37.074 82.643-82.644 82.643h-6.058v-124.697c0-24.454 19.896-44.35 44.351-44.35zm-137.274 255.435h-165.164c-42.967 0-77.923-34.956-77.923-77.923v-263.895h321.01v262.931.966c0 42.965-34.956 77.921-77.923 77.921z" fill="#1ca8a0" data-original="#000000" class=""></path><path d="m292.655 333.491c4.953-8.58 6.269-18.575 3.703-28.145-2.566-9.571-8.706-17.569-17.289-22.521l-11.949-6.897 11.948-6.901c8.584-4.952 14.724-12.951 17.29-22.522 2.565-9.57 1.25-19.565-3.704-28.146-4.958-8.583-12.958-14.722-22.525-17.286-9.571-2.564-19.566-1.246-28.147 3.711l-11.951 6.898v-13.802c0-20.451-16.639-37.09-37.09-37.09-20.452 0-37.091 16.638-37.091 37.09v13.802l-11.947-6.896c-8.584-4.958-18.583-6.277-28.154-3.713-9.572 2.564-17.571 8.704-22.524 17.288-3.255 5.639-4.975 12.042-4.975 18.519 0 13.221 7.107 25.538 18.55 32.146l11.955 6.902-11.955 6.897c-17.711 10.227-23.801 32.955-13.572 50.671 2.172 3.753 4.937 7.059 8.217 9.826 3.166 2.671 7.898 2.27 10.568-.896 2.671-3.166 2.27-7.898-.896-10.569-1.953-1.648-3.604-3.624-4.901-5.868-6.09-10.548-2.463-24.084 8.083-30.173l21.422-12.359c2.034 15.53 10.256 29.134 22.113 38.248l-21.399 12.361c-.427.243-.86.481-1.294.694-3.717 1.828-5.248 6.323-3.42 10.04s6.324 5.248 10.041 3.42c.653-.321 1.342-.689 2.141-1.146l11.948-6.901v13.797c0 20.451 16.639 37.09 37.091 37.09 20.451 0 37.09-16.639 37.09-37.09v-13.797l11.952 6.903c17.709 10.221 40.44 4.126 50.671-13.585zm-43.173-115.716c5.113-2.953 11.066-3.739 16.764-2.212 5.699 1.527 10.465 5.185 13.419 10.298 2.95 5.109 3.732 11.061 2.205 16.76-1.528 5.7-5.186 10.464-10.301 13.415l-21.41 12.366c-2.032-15.533-10.255-29.14-22.113-38.255zm-56.542-41.984c12.181 0 22.09 9.909 22.09 22.09v24.721c-6.809-2.831-14.269-4.403-22.091-4.403s-15.281 1.571-22.09 4.402v-24.721c.001-12.18 9.911-22.089 22.091-22.089zm-78.64 80.245c-6.815-3.936-11.05-11.276-11.05-19.155 0-3.848 1.025-7.659 2.966-11.022 2.95-5.113 7.714-8.769 13.414-10.296 5.7-1.528 11.656-.741 16.771 2.214l21.432 12.37c-11.858 9.115-20.081 22.722-22.114 38.256zm35.913 19.89c0-23.56 19.167-42.727 42.727-42.727s42.727 19.167 42.727 42.727-19.167 42.727-42.727 42.727-42.727-19.167-42.727-42.727zm42.727 100.135c-12.181 0-22.091-9.91-22.091-22.09v-24.72c6.809 2.831 14.268 4.402 22.09 4.402s15.282-1.571 22.091-4.403v24.72c0 12.181-9.909 22.091-22.09 22.091zm56.541-41.975-21.435-12.381c11.856-9.114 20.078-22.717 22.112-38.247l21.414 12.359c5.112 2.949 8.77 7.713 10.298 13.413 1.527 5.699.745 11.651-2.204 16.759-6.095 10.55-19.636 14.184-30.185 8.097z" fill="#1ca8a0" data-original="#000000" class=""></path><path d="m314.958 327.525c-4.143 0-7.5 3.358-7.5 7.5v48.744c0 3.681-2.995 6.676-6.676 6.676h-48.744c-4.143 0-7.5 3.358-7.5 7.5s3.357 7.5 7.5 7.5h48.744c11.952 0 21.676-9.724 21.676-21.676v-48.744c0-4.142-3.357-7.5-7.5-7.5z" fill="#1ca8a0" data-original="#000000" class=""></path><path d="m70.921 224.327c4.143 0 7.5-3.358 7.5-7.5v-48.744c0-3.681 2.995-6.676 6.676-6.676h48.744c4.143 0 7.5-3.358 7.5-7.5s-3.357-7.5-7.5-7.5h-48.744c-11.952 0-21.676 9.724-21.676 21.676v48.744c0 4.142 3.357 7.5 7.5 7.5z" fill="#1ca8a0" data-original="#000000" class=""></path><path d="m133.841 390.445h-48.744c-3.681 0-6.676-2.995-6.676-6.676v-48.744c0-4.142-3.357-7.5-7.5-7.5s-7.5 3.358-7.5 7.5v48.744c0 11.952 9.724 21.676 21.676 21.676h48.744c4.143 0 7.5-3.358 7.5-7.5s-3.358-7.5-7.5-7.5z" fill="#1ca8a0" data-original="#000000" class=""></path><path d="m300.782 146.407h-48.744c-4.143 0-7.5 3.358-7.5 7.5s3.357 7.5 7.5 7.5h48.744c3.681 0 6.676 2.995 6.676 6.676v48.744c0 4.142 3.357 7.5 7.5 7.5s7.5-3.358 7.5-7.5v-48.744c0-11.952-9.724-21.676-21.676-21.676z" fill="#1ca8a0" data-original="#000000" class=""></path></g></g></svg>