<svg xmlns="http://www.w3.org/2000/svg" version="1.1" xmlns:xlink="http://www.w3.org/1999/xlink" xmlns:svgjs="http://svgjs.com/svgjs" width="512" height="512" x="0" y="0" viewBox="0 0 512 512" style="enable-background:new 0 0 512 512" xml:space="preserve" class=""><g>
<g xmlns="http://www.w3.org/2000/svg">
	<g>
		<path d="M470.815,206c7.566-4.93,14.502-11.609,20.527-19.893C504.664,167.79,512,143.603,512,118    c0-25.603-7.336-49.79-20.658-68.107C477.323,30.616,458.379,20,438,20H74.333c-0.027,0-0.054,0.004-0.081,0.004    C74.168,20.004,74.084,20,74,20c-20.379,0-39.323,10.616-53.342,29.893C7.336,68.21,0,92.397,0,118    c0,25.603,7.336,49.79,20.658,68.107c6.025,8.284,12.96,14.963,20.527,19.893c-7.566,4.93-14.502,11.609-20.527,19.893    C7.336,244.21,0,268.397,0,294c0,25.603,7.336,49.79,20.658,68.107C34.677,381.384,53.621,392,74,392h54v90    c0,5.523,4.477,10,10,10h104.158c5.523,0,10-4.477,10-10s-4.477-10-10-10H148V294c0-25.603-7.336-49.79-20.658-68.107    c-2.622-3.605-5.416-6.907-8.359-9.893H438c13.811,0,27.011,7.691,37.167,21.656C486.022,252.582,492,272.591,492,294v178H340.25    c-5.523,0-10,4.477-10,10s4.477,10,10,10H502c5.523,0,10-4.477,10-10V294c0-25.603-7.336-49.79-20.658-68.107    C485.318,217.609,478.382,210.93,470.815,206z M128,372h-9.017c2.943-2.986,5.738-6.288,8.359-9.893    c0.226-0.31,0.436-0.635,0.658-0.949V372z M128,294c0,21.409-5.978,41.418-16.833,56.344C101.011,364.309,87.811,372,74,372    s-27.011-7.691-37.167-21.656C25.978,335.418,20,315.409,20,294s5.978-41.418,16.833-56.344C46.989,223.691,60.189,216,74,216    c13.811,0,27.011,7.691,37.167,21.656C122.022,252.582,128,272.591,128,294z M111.167,174.344C101.011,188.309,87.811,196,74,196    s-27.011-7.691-37.167-21.656C25.978,159.418,20,139.409,20,118s5.978-41.418,16.833-56.344C46.989,47.691,60.189,40,74,40    c13.811,0,27.011,7.691,37.167,21.656C122.022,76.582,128,96.591,128,118S122.022,159.418,111.167,174.344z M438,196H118.983    c2.943-2.986,5.738-6.288,8.359-9.893C140.664,167.79,148,143.603,148,118c0-25.603-7.336-49.79-20.658-68.107    c-2.622-3.605-5.416-6.907-8.359-9.893H438c13.811,0,27.011,7.691,37.167,21.656C486.022,76.582,492,96.591,492,118    s-5.978,41.418-16.833,56.344C465.011,188.309,451.811,196,438,196z" fill="#ffffff" data-original="#000000" class=""></path>
	</g>
</g>
<g xmlns="http://www.w3.org/2000/svg">
	<g>
		<path d="M295.24,474.93c-1.86-1.86-4.44-2.93-7.07-2.93c-2.64,0-5.21,1.07-7.07,2.93c-1.87,1.86-2.93,4.44-2.93,7.07    s1.06,5.21,2.93,7.07c1.86,1.86,4.43,2.93,7.07,2.93c2.63,0,5.21-1.07,7.07-2.93c1.86-1.86,2.93-4.44,2.93-7.07    S297.1,476.79,295.24,474.93z" fill="#ffffff" data-original="#000000" class=""></path>
	</g>
</g>
<g xmlns="http://www.w3.org/2000/svg">
	<g>
		<path d="M81.07,286.93C79.21,285.07,76.63,284,74,284s-5.21,1.07-7.07,2.93S64,291.37,64,294s1.07,5.21,2.93,7.07    c1.86,1.86,4.44,2.93,7.07,2.93s5.21-1.07,7.07-2.93S84,296.63,84,294S82.93,288.79,81.07,286.93z" fill="#ffffff" data-original="#000000" class=""></path>
	</g>
</g>
<g xmlns="http://www.w3.org/2000/svg">
	<g>
		<path d="M81.07,110.93C79.21,109.07,76.63,108,74,108s-5.21,1.07-7.07,2.93S64,115.37,64,118s1.07,5.21,2.93,7.07    S71.37,128,74,128s5.21-1.07,7.07-2.93S84,120.63,84,118S82.93,112.79,81.07,110.93z" fill="#ffffff" data-original="#000000" class=""></path>
	</g>
</g>
<g xmlns="http://www.w3.org/2000/svg">
	<g>
		<path d="M379.5,62H301c-5.523,0-10,4.477-10,10s4.477,10,10,10h78.5c5.523,0,10-4.477,10-10S385.023,62,379.5,62z" fill="#ffffff" data-original="#000000" class=""></path>
	</g>
</g>
<g xmlns="http://www.w3.org/2000/svg">
	<g>
		<path d="M263.2,64.93c-1.86-1.86-4.44-2.93-7.07-2.93s-5.21,1.07-7.07,2.93c-1.87,1.86-2.93,4.44-2.93,7.07s1.06,5.21,2.93,7.07    c1.86,1.86,4.44,2.93,7.07,2.93s5.21-1.07,7.07-2.93s2.93-4.44,2.93-7.07S265.06,66.79,263.2,64.93z" fill="#ffffff" data-original="#000000" class=""></path>
	</g>
</g>
<g xmlns="http://www.w3.org/2000/svg">
</g>
<g xmlns="http://www.w3.org/2000/svg">
</g>
<g xmlns="http://www.w3.org/2000/svg">
</g>
<g xmlns="http://www.w3.org/2000/svg">
</g>
<g xmlns="http://www.w3.org/2000/svg">
</g>
<g xmlns="http://www.w3.org/2000/svg">
</g>
<g xmlns="http://www.w3.org/2000/svg">
</g>
<g xmlns="http://www.w3.org/2000/svg">
</g>
<g xmlns="http://www.w3.org/2000/svg">
</g>
<g xmlns="http://www.w3.org/2000/svg">
</g>
<g xmlns="http://www.w3.org/2000/svg">
</g>
<g xmlns="http://www.w3.org/2000/svg">
</g>
<g xmlns="http://www.w3.org/2000/svg">
</g>
<g xmlns="http://www.w3.org/2000/svg">
</g>
<g xmlns="http://www.w3.org/2000/svg">
</g>
</g></svg>