<svg xmlns="http://www.w3.org/2000/svg" version="1.1" xmlns:xlink="http://www.w3.org/1999/xlink" xmlns:svgjs="http://svgjs.com/svgjs" width="512" height="512" x="0" y="0" viewBox="0 0 512 512" style="enable-background:new 0 0 512 512" xml:space="preserve" class=""><g>
<g xmlns="http://www.w3.org/2000/svg">
	<g>
		<path d="M509.804,259.855l-60.098-60.098c-1.407-1.407-3.314-2.197-5.304-2.197h-27.327v-3.412h32.681    c10.636,0,19.289-8.653,19.289-19.289s-8.653-19.29-19.289-19.29h-11.927V140.2c0-4.142-3.357-7.5-7.5-7.5s-7.5,3.358-7.5,7.5    v15.371h-53.435c-10.637,0-19.29,8.653-19.29,19.29c0,10.637,8.653,19.289,19.29,19.289h32.681v3.412h-57.313    c-4.143,0-7.5,3.358-7.5,7.5v9.336h-4.113v-22.603c0-31.494-25.622-57.116-57.115-57.116H250.54c-0.185,0-0.366,0.014-0.548,0.028    l-3.971-3.971l1.078-2.808c1.484-3.867-0.448-8.205-4.315-9.689c-2.753-1.056-5.737-0.376-7.766,1.493l-8.79-8.79    c-2.929-2.929-7.677-2.929-10.607,0c-2.929,2.929-2.929,7.678,0,10.606l12.908,12.908l-7.733,20.153    c-9.022-0.167-17.612,5.254-21.028,14.152c-2.111,5.501-1.953,11.496,0.444,16.879c2.397,5.383,6.747,9.51,12.248,11.621    c2.567,0.985,5.242,1.477,7.912,1.477c3.052,0,6.096-0.642,8.967-1.92c5.383-2.397,9.51-6.748,11.621-12.249    c2.111-5.501,1.954-11.496-0.443-16.879c-1.339-3.007-3.305-5.602-5.723-7.693l5.345-13.93l14.896,14.896v85.39H123.837v-25.444    c0-1.989-0.79-3.897-2.197-5.303l-44.381-44.379V50.596h67.409l46.784,46.785c2.93,2.929,7.678,2.929,10.607,0    c2.929-2.929,2.929-7.678,0-10.606l-48.981-48.981c-1.407-1.407-3.314-2.197-5.304-2.197H43.147c-4.143,0-7.5,3.358-7.5,7.5    v104.626c0,1.989,0.79,3.897,2.197,5.303l26.531,26.53c0.055,0.057,0.112,0.113,0.169,0.169l44.293,44.292v22.337H80.089    c-4.143,0-7.5,3.358-7.5,7.5c0,4.142,3.357,7.5,7.5,7.5h181.729v157.951h-160.23L15,332.724v-71.372h30.911    c4.143,0,7.5-3.358,7.5-7.5c0-4.142-3.357-7.5-7.5-7.5H7.5c-4.143,0-7.5,3.358-7.5,7.5v81.976c0,0.002,0,0.003,0,0.005v55.262    c0,1.989,0.79,3.897,2.197,5.304l37.732,37.728H7.5c-2.816,0-5.395,1.578-6.677,4.084c-1.283,2.507-1.053,5.521,0.596,7.805    l19.687,27.277c1.409,1.954,3.672,3.111,6.081,3.111h398.725c4.143,0,7.5-3.358,7.5-7.5c0-4.142-3.357-7.5-7.5-7.5h-73.648    v-27.101H497v27.101h-36.911c-4.143,0-7.5,3.358-7.5,7.5c0,4.142,3.357,7.5,7.5,7.5H504.5c4.143,0,7.5-3.358,7.5-7.5V265.159    C512,263.169,511.21,261.262,509.804,259.855z M226.955,179.194c-0.676,1.761-1.997,3.154-3.72,3.921    c-1.723,0.768-3.641,0.817-5.402,0.142c-1.761-0.676-3.152-1.997-3.92-3.72s-0.818-3.642-0.143-5.402    c1.077-2.806,3.761-4.532,6.601-4.532c0.84,0,1.693,0.151,2.522,0.469c1.761,0.676,3.152,1.997,3.92,3.72    S227.631,177.433,226.955,179.194z M62.259,156.227l-11.612-11.612V50.596h11.612V156.227z M31.023,461.404l-8.861-12.277h32.77    l12.278,12.277H31.023z M261.818,461.404h-2.071H104.149H88.425L15,387.989v-34.053l78.179,78.171    c1.406,1.406,3.313,2.196,5.303,2.196h163.336V461.404z M264.964,149.68h11.07v-0.001c23.223,0,42.115,18.893,42.115,42.116    v22.603h-48.115v-56.541c0-1.989-0.79-3.897-2.196-5.303L264.964,149.68z M337.262,461.404h-60.445v-27.101h60.445V461.404z     M337.263,419.303h-60.445v-157.95h60.445V419.303z M337.263,246.353h-67.229v-16.956h67.229V246.353z M369.395,179.149    c-2.366,0-4.29-1.924-4.29-4.289s1.925-4.29,4.29-4.29h80.361c2.365,0,4.289,1.924,4.289,4.29c0,2.366-1.924,4.289-4.289,4.289    H369.395z M497,419.303H352.263V212.561h89.033L497,268.265V419.303z" fill="#7762e2" data-original="#000000" class=""></path>
	</g>
</g>
<g xmlns="http://www.w3.org/2000/svg">
	<g>
		<path d="M113.811,62.052c-11.221,0-20.349,9.128-20.349,20.348c0,11.22,9.128,20.348,20.349,20.348    c11.22,0,20.348-9.128,20.348-20.348C134.159,71.18,125.031,62.052,113.811,62.052z M113.81,87.748    c-2.949,0-5.349-2.399-5.349-5.348c0-2.949,2.399-5.348,5.349-5.348c2.949,0,5.348,2.399,5.348,5.348    C119.158,85.349,116.759,87.748,113.81,87.748z" fill="#7762e2" data-original="#000000" class=""></path>
	</g>
</g>
<g xmlns="http://www.w3.org/2000/svg">
	<g>
		<path d="M174.901,127.505V93.172c0-4.142-3.357-7.5-7.5-7.5s-7.5,3.358-7.5,7.5v34.334c-8.483,3.076-14.561,11.214-14.561,20.746    c0,12.165,9.896,22.061,22.061,22.061s22.062-9.896,22.062-22.061C189.463,138.72,183.385,130.582,174.901,127.505z     M167.401,155.314c-3.894,0-7.061-3.167-7.061-7.061s3.167-7.061,7.061-7.061s7.062,3.167,7.062,7.061    S171.295,155.314,167.401,155.314z" fill="#7762e2" data-original="#000000" class=""></path>
	</g>
</g>
<g xmlns="http://www.w3.org/2000/svg">
	<g>
		<path d="M236.19,223.045h-0.092c-4.143,0-7.454,3.358-7.454,7.5c0,4.142,3.403,7.5,7.546,7.5s7.5-3.357,7.5-7.5    C243.69,226.403,240.333,223.045,236.19,223.045z" fill="#7762e2" data-original="#000000" class=""></path>
	</g>
</g>
<g xmlns="http://www.w3.org/2000/svg">
	<g>
		<path d="M211.354,285.562c-18.162,0-32.938,14.776-32.938,32.938s14.775,32.938,32.938,32.938s32.938-14.776,32.938-32.938    S229.516,285.562,211.354,285.562z M211.354,336.438c-9.891,0-17.938-8.047-17.938-17.938s8.047-17.938,17.938-17.938    c9.892,0,17.938,8.047,17.938,17.938S221.245,336.438,211.354,336.438z" fill="#7762e2" data-original="#000000" class=""></path>
	</g>
</g>
<g xmlns="http://www.w3.org/2000/svg">
	<g>
		<path d="M325.649,358.673h-13.195c-4.143,0-7.5,3.358-7.5,7.5c0,4.142,3.358,7.5,7.5,7.5h13.195c4.143,0,7.5-3.358,7.5-7.5    C333.149,362.031,329.792,358.673,325.649,358.673z" fill="#7762e2" data-original="#000000" class=""></path>
	</g>
</g>
<g xmlns="http://www.w3.org/2000/svg">
	<g>
		<path d="M415.282,233.379h-29.235c-4.143,0-7.5,3.358-7.5,7.5v29.235c0,4.142,3.357,7.5,7.5,7.5h29.235c4.143,0,7.5-3.358,7.5-7.5    v-29.235C422.782,236.737,419.425,233.379,415.282,233.379z M407.782,262.613h-14.235v-14.235h14.235V262.613z" fill="#7762e2" data-original="#000000" class=""></path>
	</g>
</g>
<g xmlns="http://www.w3.org/2000/svg">
	<g>
		<path d="M419.315,378.827h-33.268c-4.143,0-7.5,3.358-7.5,7.5c0,4.142,3.357,7.5,7.5,7.5h33.268c4.143,0,7.5-3.358,7.5-7.5    C426.815,382.185,423.457,378.827,419.315,378.827z" fill="#7762e2" data-original="#000000" class=""></path>
	</g>
</g>
<g xmlns="http://www.w3.org/2000/svg">
	<g>
		<path d="M419.315,358.673h-33.268c-4.143,0-7.5,3.358-7.5,7.5c0,4.142,3.357,7.5,7.5,7.5h33.268c4.143,0,7.5-3.358,7.5-7.5    C426.815,362.031,423.457,358.673,419.315,358.673z" fill="#7762e2" data-original="#000000" class=""></path>
	</g>
</g>
<g xmlns="http://www.w3.org/2000/svg">
	<g>
		<path d="M461.545,291.749h-75.498c-4.143,0-7.5,3.358-7.5,7.5v26.986c0,4.142,3.357,7.5,7.5,7.5h75.498c4.143,0,7.5-3.358,7.5-7.5    v-26.986C469.045,295.107,465.688,291.749,461.545,291.749z M393.547,318.735v-11.986h60.498v11.986H393.547z" fill="#7762e2" data-original="#000000" class=""></path>
	</g>
</g>
<g xmlns="http://www.w3.org/2000/svg">
</g>
<g xmlns="http://www.w3.org/2000/svg">
</g>
<g xmlns="http://www.w3.org/2000/svg">
</g>
<g xmlns="http://www.w3.org/2000/svg">
</g>
<g xmlns="http://www.w3.org/2000/svg">
</g>
<g xmlns="http://www.w3.org/2000/svg">
</g>
<g xmlns="http://www.w3.org/2000/svg">
</g>
<g xmlns="http://www.w3.org/2000/svg">
</g>
<g xmlns="http://www.w3.org/2000/svg">
</g>
<g xmlns="http://www.w3.org/2000/svg">
</g>
<g xmlns="http://www.w3.org/2000/svg">
</g>
<g xmlns="http://www.w3.org/2000/svg">
</g>
<g xmlns="http://www.w3.org/2000/svg">
</g>
<g xmlns="http://www.w3.org/2000/svg">
</g>
<g xmlns="http://www.w3.org/2000/svg">
</g>
</g></svg>