<svg xmlns="http://www.w3.org/2000/svg" version="1.1" xmlns:xlink="http://www.w3.org/1999/xlink" xmlns:svgjs="http://svgjs.com/svgjs" width="512" height="512" x="0" y="0" viewBox="0 0 64 64" style="enable-background:new 0 0 512 512" xml:space="preserve" class=""><g><path xmlns="http://www.w3.org/2000/svg" d="m1.044 48.706a1 1 0 0 0 1.166 1.272l11.169-2.394a24.934 24.934 0 0 0 11.281 3.372 19.974 19.974 0 0 0 29.287 8.772l7.668 3.2a1 1 0 0 0 1.308-1.308l-3.194-7.668a19.976 19.976 0 0 0 -8.766-29.284 25 25 0 1 0 -46.72 13.643zm59.956-5.706a17.876 17.876 0 0 1 -3.224 10.263 1 1 0 0 0 -.1.956l2.468 5.924-5.924-2.468a1 1 0 0 0 -.956.1 17.988 17.988 0 0 1 -26.4-6.8 25.023 25.023 0 0 0 24.114-24.114 17.9 17.9 0 0 1 10.022 16.139zm-58-17a22.991 22.991 0 1 1 11.073 19.67 1 1 0 0 0 -.519-.146 1.054 1.054 0 0 0 -.21.022l-9.887 2.119 2.826-9.183a1 1 0 0 0 -.1-.8 22.975 22.975 0 0 1 -3.183-11.682z" fill="#ffffff" data-original="#000000" class=""></path><circle xmlns="http://www.w3.org/2000/svg" cx="52" cy="46" r="2" fill="#ffffff" data-original="#000000" class=""></circle><circle xmlns="http://www.w3.org/2000/svg" cx="46" cy="46" r="2" fill="#ffffff" data-original="#000000" class=""></circle><path xmlns="http://www.w3.org/2000/svg" d="m17 30a3 3 0 0 0 0 6 8.009 8.009 0 0 0 8-8v-5a5.006 5.006 0 0 0 -5-5h-1a5 5 0 0 0 0 10 2 2 0 0 1 -2 2zm2-4a3 3 0 0 1 0-6h1a3 3 0 0 1 3 3v5a6.006 6.006 0 0 1 -6 6 1 1 0 0 1 0-2 4 4 0 0 0 4-4 2 2 0 0 0 -2-2z" fill="#ffffff" data-original="#000000" class=""></path><path xmlns="http://www.w3.org/2000/svg" d="m30 30a3 3 0 0 0 0 6 8.009 8.009 0 0 0 8-8v-5a5.006 5.006 0 0 0 -5-5h-1a5 5 0 0 0 0 10 2 2 0 0 1 -2 2zm2-4a3 3 0 0 1 0-6h1a3 3 0 0 1 3 3v5a6.006 6.006 0 0 1 -6 6 1 1 0 0 1 0-2 4 4 0 0 0 4-4 2 2 0 0 0 -2-2z" fill="#ffffff" data-original="#000000" class=""></path></g></svg>